<svg width="25" height="25" viewBox="0 0 25 25" fill="none" xmlns="http://www.w3.org/2000/svg">
<path d="M21.24 17.5592C21.1983 17.3012 21.0365 17.0807 20.7943 16.9497L17.2105 14.8382L17.181 14.8217C17.0308 14.7465 16.8648 14.7079 16.6968 14.7092C16.3965 14.7092 16.1098 14.8229 15.9108 15.0224L14.853 16.0807C14.8078 16.1237 14.6603 16.1859 14.6155 16.1882C14.6033 16.1872 13.3848 16.0994 11.1415 13.8559C8.90229 11.6172 8.80729 10.3949 8.80654 10.3949C8.80779 10.3324 8.86929 10.1854 8.91304 10.1399L9.81504 9.23819C10.1328 8.91969 10.228 8.39169 10.0395 7.98269L8.04754 4.23444C7.90279 3.93644 7.62154 3.75244 7.30954 3.75244C7.08879 3.75244 6.87579 3.84394 6.70929 4.01019L4.25054 6.46344C4.01479 6.69794 3.81179 7.10794 3.76754 7.43794C3.74604 7.59569 3.30979 11.3612 8.47229 16.5244C12.855 20.9067 16.2725 21.2472 17.2163 21.2472C17.3312 21.2487 17.4461 21.2427 17.5603 21.2294C17.8893 21.1854 18.2988 20.9829 18.533 20.7482L20.9898 18.2917C21.1903 18.0902 21.2818 17.8239 21.24 17.5592Z" fill="#AF0023"/>
</svg>
