<svg width="20" height="20" viewBox="0 0 20 20" fill="none" xmlns="http://www.w3.org/2000/svg">
<path d="M17.18 2.92637C16.9065 2.63859 16.5781 2.40848 16.2143 2.24959C15.8504 2.0907 15.4584 2.00625 15.0614 2.00122C14.6644 1.99618 14.2704 2.07067 13.9027 2.22028C13.5349 2.3699 13.2008 2.59162 12.92 2.87237L3.54504 12.2474C3.21751 12.5753 2.9903 12.9899 2.89004 13.4424L2.01204 17.3924C1.99388 17.4745 1.99672 17.5599 2.02031 17.6406C2.0439 17.7213 2.08747 17.7948 2.14699 17.8542C2.20651 17.9136 2.28005 17.9571 2.36082 17.9805C2.44158 18.004 2.52696 18.0067 2.60904 17.9884L6.53504 17.1154C7.00235 17.0115 7.43039 16.7767 7.76904 16.4384L15.749 8.45737L16.086 8.79337C16.2735 8.9809 16.3788 9.2352 16.3788 9.50037C16.3788 9.76553 16.2735 10.0198 16.086 10.2074L15.146 11.1474C15.0523 11.2413 14.9997 11.3685 14.9998 11.5012C14.9999 11.6339 15.0527 11.7611 15.1465 11.8549C15.2404 11.9486 15.3677 12.0012 15.5004 12.0011C15.6331 12.0011 15.7603 11.9483 15.854 11.8544L16.793 10.9144C17.168 10.5393 17.3786 10.0307 17.3786 9.50037C17.3786 8.97004 17.168 8.46142 16.793 8.08637L16.457 7.75037L17.127 7.08037C17.6759 6.53156 17.9885 5.79002 17.9982 5.01395C18.0079 4.23788 17.7139 3.48874 17.179 2.92637H17.18ZM13.627 3.58037C13.9998 3.22228 14.4981 3.02459 15.0149 3.02973C15.5318 3.03486 16.026 3.24242 16.3916 3.60784C16.7571 3.97327 16.9649 4.46744 16.9702 4.98429C16.9755 5.50115 16.778 5.99949 16.42 6.37237L7.06204 15.7304C6.85799 15.9347 6.5999 16.0766 6.31804 16.1394L3.15804 16.8424L3.86604 13.6594C3.92494 13.3922 4.05926 13.1475 4.25304 12.9544L13.627 3.58037Z" fill="#9D9D9D"/>
</svg>
